<?xml version="1.0" encoding="utf-8"?>
<!-- Generator: Adobe Illustrator 16.0.0, SVG Export Plug-In . SVG Version: 6.00 Build 0)  -->
<!DOCTYPE svg PUBLIC "-//W3C//DTD SVG 1.1//EN" "http://www.w3.org/Graphics/SVG/1.1/DTD/svg11.dtd">
<svg version="1.1" id="Capa_1" xmlns="http://www.w3.org/2000/svg" xmlns:xlink="http://www.w3.org/1999/xlink" x="0px" y="0px"
	 width="1875px" height="938px" viewBox="0 0 1875 938" enable-background="new 0 0 1875 938" xml:space="preserve">
<g transform="translate(0.000000,938.000000) scale(0.100000,-0.100000)">
	<path fill="#1D1D18" d="M4415.002,9052.997c-263.008-20.996-405-40-580-73.999c-1027.998-203.999-1940-761.997-2597.002-1590
		C670.002,6672.998,338,5781,300.999,4870c-38.994-972.002,214.004-1870,750-2660c674.004-995,1726.006-1670.996,2909.004-1869.004
		c598.994-100.996,1273.994-70,1850,85C6846.994,705,7740.002,1345,8335.002,2235c385,577.002,610.996,1180.996,705.996,1890
		c20.996,150.996,22.998,212.001,24.004,535c0,372.998-5,457.998-46.006,710c-242.998,1522.002-1282.998,2815-2723.994,3385
		c-413.008,162.998-837.002,260-1294.004,295C4878,9058.998,4511.994,9061,4415.002,9052.997z M5120.002,8734.999
		C6353,8593.998,7425.002,7936,8103,6903.999c350-531.997,558.994-1106.001,642.998-1768.999
		c22.998-175.996,25.996-695.996,5.996-880c-88.994-797.998-388.994-1524.004-890-2150
		c-128.994-162.002-455.996-487.002-621.992-619.004c-631.006-502.998-1340-793.994-2152.002-881.992
		c-207.002-23.008-599.004-23.008-807.998,0C3698.996,667.002,3153,840.996,2673.996,1115.996
		c-346.992,199.004-623.994,414.004-913.994,710c-561.006,573.008-940,1296.006-1090,2079.004c-81.006,425-92.002,927.002-30,1350
		c242.998,1648.999,1457.998,2987.001,3075,3385c236.992,58.999,415.996,86.001,755,113.999
		C4565.998,8762.001,4991.994,8749.999,5120.002,8734.999z"/>
	<path fill="#E30613" d="M2620.002,7520v-300h1305c717.998,0,1305-2.002,1305-5s-660-1295-1467.002-2872.002
		c-807.998-1577.002-1469.004-2870-1470.996-2875c-2.002-3.994,145.996-7.998,330-7.998h332.998L4578,4629.003
		c892.002,1743.994,1622.002,3174.995,1622.002,3179.995c0,8.003-543.008,11.001-1790,11.001h-1790V7520z"/>
	<path fill="#E30613" d="M4795.002,4652.998c-891.006-1742.002-1621.006-3172.998-1623.008-3180
		c-2.998-10.996,323.008-12.998,1787.002-12.998h1791.006v300v300l-1305,2.002l-1305,2.998l1465.996,2864.003
		c805.996,1574.995,1467.998,2869.995,1470.996,2877.998c4.004,10.996-53.994,12.998-327.998,12.998l-333.994-1.001
		L4795.002,4652.998z"/>
	<path fill="#1D1D18" d="M14085.001,6166C13458,6062.998,12975.998,5632.001,12825.998,5040
		c-69.004-270.996-55.996-592.998,34.004-860.996c170-509.004,622.998-893.008,1175-995
		c139.999-26.006,489.999-27.002,619.999-1.006c150,30,282.998,75,420,142.002c303.994,150.996,531.992,374.004,677.998,665
		c97.998,194.004,137.998,339.004,157.998,560.996c30.996,341.006-55,671.006-247.998,964.004
		c-85,127.002-262.998,307.002-391.006,393.999c-166.992,113.003-365,197.002-570.996,242.002
		C14578.995,6177.998,14211.993,6187.001,14085.001,6166z M14530.001,5426c235.996-65.005,438.994-261.001,513.994-498.003
		c69.004-222.002,50-445-55-647.998c-272.002-525.996-1028.993-510.996-1289.999,25.996
		c-62.002,128.007-82.002,217.001-82.002,369.003c-0.996,140,13.008,217.002,60,330c92.002,220,304.004,392.998,537.001,435
		C14282.999,5452.001,14461.993,5443.999,14530.001,5426z"/>
	<path fill="#1D1D18" d="M9950.002,5785v-345l695.996-2.002l695-2.998l-720-810l-720.996-810v-297.002V3220h1285h1285v345v345h-715
		c-393.008,0-715,2.002-715,5s321.992,367.998,715,810l715,805v300v300h-1260h-1260V5785z"/>
	<path fill="#1D1D18" d="M16330.001,4675V3220H17435h1105v355v355h-700h-700v1100v1100h-405h-404.999V4675z"/>
</g>
</svg>
